<svg xmlns="http://www.w3.org/2000/svg"  viewBox="0 0 24 24" width="48px" height="48px"><path d="M 2.015625 0 C 0.903625 0 0 0.903625 0 2.015625 L 0 21.984375 C 0 23.095375 0.903625 24 2.015625 24 L 21.984375 24 C 23.095375 24 24 23.096375 24 21.984375 L 24 2.015625 C 24 0.903625 23.096375 0 21.984375 0 L 2.015625 0 z M 2.015625 1 L 21.984375 1 C 22.543375 1 23 1.455625 23 2.015625 L 23 21.984375 C 23 22.544375 22.544375 23 21.984375 23 L 2.015625 23 C 1.455625 23 1 22.544375 1 21.984375 L 1 2.015625 C 1 1.455625 1.455625 1 2.015625 1 z M 10 5 C 9.872125 4.99975 9.7444844 5.0489844 9.6464844 5.1464844 L 6.0117188 8.78125 L 4.3535156 7.125 C 4.1585156 6.93 3.8414844 6.93 3.6464844 7.125 C 3.4514844 7.32 3.4514844 7.6370312 3.6464844 7.8320312 L 5.6582031 9.84375 C 5.7552031 9.94075 5.8837187 9.9882812 6.0117188 9.9882812 C 6.1397188 9.9882812 6.2662813 9.94075 6.3632812 9.84375 L 10.353516 5.8535156 C 10.548516 5.6585156 10.548516 5.3414844 10.353516 5.1464844 C 10.256016 5.0489844 10.127875 5.00025 10 5 z M 14 6.9941406 C 13.724 6.9941406 13.5 7.2181406 13.5 7.4941406 C 13.5 7.7701406 13.724 7.9941406 14 7.9941406 L 20 7.9941406 C 20.276 7.9941406 20.5 7.7701406 20.5 7.4941406 C 20.5 7.2181406 20.276 6.9941406 20 6.9941406 L 14 6.9941406 z M 10 14.011719 C 9.871875 14.011469 9.7444844 14.05875 9.6464844 14.15625 L 6.0097656 17.792969 L 4.3535156 16.136719 C 4.1585156 15.941719 3.8414844 15.941719 3.6464844 16.136719 C 3.4514844 16.331719 3.4514844 16.64875 3.6464844 16.84375 L 5.65625 18.853516 C 5.75425 18.950516 5.8837187 19 6.0117188 19 C 6.1397188 19 6.2672344 18.950516 6.3652344 18.853516 L 10.353516 14.865234 C 10.548516 14.670234 10.548516 14.353203 10.353516 14.158203 C 10.256016 14.060703 10.128125 14.011969 10 14.011719 z M 14 16.005859 C 13.724 16.005859 13.5 16.229859 13.5 16.505859 C 13.5 16.781859 13.724 17.005859 14 17.005859 L 20 17.005859 C 20.276 17.005859 20.5 16.781859 20.5 16.505859 C 20.5 16.229859 20.276 16.005859 20 16.005859 L 14 16.005859 z"/></svg>